<?xml version="1.0" standalone="no"?>
<!DOCTYPE svg PUBLIC "-//W3C//DTD SVG 20010904//EN"
 "http://www.w3.org/TR/2001/REC-SVG-20010904/DTD/svg10.dtd">
<svg version="1.0" xmlns="http://www.w3.org/2000/svg"
 width="700.000000pt" height="700.000000pt" viewBox="0 0 700.000000 700.000000"
 preserveAspectRatio="xMidYMid meet">
<metadata>
Created by potrace 1.14, written by Peter Selinger 2001-2017
</metadata>
<g transform="translate(0.000000,700.000000) scale(0.100000,-0.100000)"
fill="#000000" stroke="none">
<path d="M3367 6975 c-55 -22 -91 -47 -197 -135 -119 -99 -179 -128 -285 -137
-71 -6 -121 2 -285 46 -193 52 -300 47 -470 -22 -143 -58 -239 -135 -295 -237
-28 -52 -30 -61 -29 -160 1 -91 6 -122 39 -230 78 -259 90 -340 66 -430 -30
-107 -100 -182 -235 -251 -79 -40 -83 -44 -92 -86 -11 -47 -11 -183 0 -281 13
-111 10 -202 -7 -219 -14 -14 -22 -13 -80 12 -49 20 -69 25 -83 17 -40 -21
-151 -272 -259 -582 -138 -398 -207 -570 -294 -725 -35 -64 -71 -107 -176
-210 -73 -71 -140 -145 -149 -164 -60 -115 -90 -288 -121 -676 -3 -33 -7 -80
-10 -105 -3 -25 -8 -67 -10 -95 -3 -27 -10 -75 -15 -105 -5 -30 -12 -73 -15
-95 -3 -22 -8 -56 -11 -75 -4 -19 -8 -44 -9 -55 -2 -11 -6 -38 -9 -60 -4 -22
-13 -83 -21 -135 -8 -52 -19 -120 -25 -150 -6 -30 -13 -70 -16 -88 -21 -129
-88 -353 -142 -474 -50 -111 -91 -234 -119 -353 -2 -11 -7 -86 -10 -168 l-6
-147 31 -63 c17 -34 61 -98 98 -142 37 -44 85 -106 107 -137 l41 -58 81 0 c80
0 87 2 316 94 513 205 1093 479 1574 743 33 18 71 39 85 45 28 15 317 174 340
188 8 5 150 88 315 183 277 161 502 296 1000 600 105 64 195 120 200 124 8 7
106 66 177 108 10 5 86 52 170 104 299 185 968 585 1008 604 8 4 29 15 45 26
35 21 40 24 320 181 315 177 371 206 747 393 l347 172 0 162 1 162 -29 46
c-55 86 -77 215 -80 455 l-2 155 -36 53 c-42 62 -149 167 -288 284 -55 46
-118 102 -141 124 l-41 40 -6 114 c-9 180 -42 258 -200 470 -55 74 -104 145
-109 156 -8 18 -24 24 -83 33 -132 19 -281 83 -405 174 -77 57 -112 88 -305
275 -252 245 -356 323 -502 375 -116 42 -268 51 -388 23 -50 -12 -124 -35
-170 -53 l-51 -19 -33 70 c-62 130 -178 220 -388 300 -84 32 -98 34 -205 34
-97 0 -125 -4 -171 -23z"/>
</g>
</svg>
